{
	"asset":{
		"generator":"Khronos glTF Blender I/O v4.3.47",
		"version":"2.0"
	},
	"scene":0,
	"scenes":[
		{
			"name":"Scene",
			"nodes":[
				0
			]
		}
	],
	"nodes":[
		{
			"mesh":0,
			"name":"Apprentice_LP",
			"rotation":[
				0.7071068286895752,
				0,
				0,
				0.7071068286895752
			],
			"scale":[
				0.009999999776482582,
				0.009999999776482582,
				0.009999999776482582
			]
		}
	],
	"materials":[
		{
			"doubleSided":true,
			"name":"standardSurface1",
			"pbrMetallicRoughness":{
				"metallicFactor":0,
				"roughnessFactor":0.5527864098548889
			}
		},
		{
			"doubleSided":true,
			"name":"LizardClothi_MAT",
			"pbrMetallicRoughness":{
				"metallicFactor":0,
				"roughnessFactor":0.5527864098548889
			}
		}
	],
	"meshes":[
		{
			"name":"Mesh",
			"primitives":[
				{
					"attributes":{
						"POSITION":0,
						"NORMAL":1,
						"TEXCOORD_0":2
					},
					"indices":3,
					"material":0
				},
				{
					"attributes":{
						"POSITION":4,
						"NORMAL":5,
						"TEXCOORD_0":6
					},
					"indices":7,
					"material":1
				}
			]
		}
	],
	"accessors":[
		{
			"bufferView":0,
			"componentType":5126,
			"count":5090,
			"max":[
				46.745567321777344,
				28.38005256652832,
				0.017053915187716484
			],
			"min":[
				-46.745567321777344,
				-144.7302703857422,
				-120.25790405273438
			],
			"type":"VEC3"
		},
		{
			"bufferView":1,
			"componentType":5126,
			"count":5090,
			"type":"VEC3"
		},
		{
			"bufferView":2,
			"componentType":5126,
			"count":5090,
			"type":"VEC2"
		},
		{
			"bufferView":3,
			"componentType":5123,
			"count":25584,
			"type":"SCALAR"
		},
		{
			"bufferView":4,
			"componentType":5126,
			"count":600,
			"max":[
				24.549327850341797,
				11.231298446655273,
				-17.817792892456055
			],
			"min":[
				-23.371315002441406,
				-31.123733520507812,
				-91.68324279785156
			],
			"type":"VEC3"
		},
		{
			"bufferView":5,
			"componentType":5126,
			"count":600,
			"type":"VEC3"
		},
		{
			"bufferView":6,
			"componentType":5126,
			"count":600,
			"type":"VEC2"
		},
		{
			"bufferView":7,
			"componentType":5123,
			"count":2814,
			"type":"SCALAR"
		}
	],
	"bufferViews":[
		{
			"buffer":0,
			"byteLength":61080,
			"byteOffset":0,
			"target":34962
		},
		{
			"buffer":0,
			"byteLength":61080,
			"byteOffset":61080,
			"target":34962
		},
		{
			"buffer":0,
			"byteLength":40720,
			"byteOffset":122160,
			"target":34962
		},
		{
			"buffer":0,
			"byteLength":51168,
			"byteOffset":162880,
			"target":34963
		},
		{
			"buffer":0,
			"byteLength":7200,
			"byteOffset":214048,
			"target":34962
		},
		{
			"buffer":0,
			"byteLength":7200,
			"byteOffset":221248,
			"target":34962
		},
		{
			"buffer":0,
			"byteLength":4800,
			"byteOffset":228448,
			"target":34962
		},
		{
			"buffer":0,
			"byteLength":5628,
			"byteOffset":233248,
			"target":34963
		}
	],
	"buffers":[
		{
			"byteLength":238876,
			"uri":"Appretice.bin"
		}
	]
}
